<svg xmlns="http://www.w3.org/2000/svg" viewBox="0 0 640 360" role="img" aria-label="數獨 thumbnail">
  <defs>
    <pattern id="pixelGrid" width="4" height="4" patternUnits="userSpaceOnUse">
      <rect width="4" height="4" fill="#12122a"/>
      <rect width="1" height="1" fill="#1a1a40" opacity="0.4"/>
    </pattern>
  </defs>

  <!-- Background -->
  <rect width="640" height="360" rx="4" fill="#0f0f23"/>
  <rect width="640" height="360" rx="4" fill="url(#pixelGrid)"/>

  <!-- === SUDOKU GRID (centered) === -->
  <g transform="translate(164, 45)">
    <!-- Cell backgrounds (9x9 grid, cell 36x36, gap 2, box border 3) -->
    <rect width="312" height="312" rx="2" fill="#1a1a38"/>
    <rect x="3" y="3" width="306" height="306" fill="#222244" rx="2"/>

    <!-- Thin cell borders (1px between all cells) -->
    <rect x="38" y="3" width="1" height="306" fill="#2a2a5a"/>
    <rect x="76" y="3" width="1" height="306" fill="#2a2a5a"/>
    <rect x="114" y="3" width="1" height="306" fill="#2a2a5a"/>
    <rect x="152" y="3" width="1" height="306" fill="#2a2a5a"/>
    <rect x="190" y="3" width="1" height="306" fill="#2a2a5a"/>
    <rect x="228" y="3" width="1" height="306" fill="#2a2a5a"/>
    <rect x="266" y="3" width="1" height="306" fill="#2a2a5a"/>
    <rect x="304" y="3" width="1" height="306" fill="#2a2a5a"/>

    <rect x="3" y="38" width="306" height="1" fill="#2a2a5a"/>
    <rect x="3" y="76" width="306" height="1" fill="#2a2a5a"/>
    <rect x="3" y="114" width="306" height="1" fill="#2a2a5a"/>
    <rect x="3" y="152" width="306" height="1" fill="#2a2a5a"/>
    <rect x="3" y="190" width="306" height="1" fill="#2a2a5a"/>
    <rect x="3" y="228" width="306" height="1" fill="#2a2a5a"/>
    <rect x="3" y="266" width="306" height="1" fill="#2a2a5a"/>
    <rect x="3" y="304" width="306" height="1" fill="#2a2a5a"/>

    <!-- Thick box borders (3px between 3x3 blocks) -->
    <rect x="112" y="2" width="3" height="308" fill="#4a4a8a"/>
    <rect x="229" y="2" width="3" height="308" fill="#4a4a8a"/>
    <rect x="1" y="112" width="310" height="3" fill="#4a4a8a"/>
    <rect x="1" y="229" width="310" height="3" fill="#4a4a8a"/>

    <!-- Outer border (thick) -->
    <rect x="1" y="1" width="310" height="310" fill="none" stroke="#4a4a8a" stroke-width="3" rx="2"/>

    <!-- === NUMBERS === -->
    <!-- Each number is made of 4x3 pixel rects in a 5-wide x 7-tall pattern -->
    <!-- Font color: #e0e0ff (given numbers) -->

    <!-- Row 0: cell(0,0)='1'  cell(0,4)='2'  cell(0,6)='7' -->
    <!-- Number 1 at x=2, y=69 (center of cell 0,0: x=6+21=27 → offset 2 from cell start) -->
    <!-- Number 2 at x=160, y=69 -->
    <!-- Number 7 at x=236, y=69 -->
    <!-- 1: right column filled -->
    <g fill="#e0e0ff">
      <rect x="2" y="0" width="4" height="3"/>
      <rect x="6" y="0" width="4" height="3"/>
      <rect x="10" y="0" width="4" height="3"/>
      <rect x="14" y="3" width="4" height="3"/>
      <rect x="18" y="3" width="4" height="3"/>
      <rect x="2" y="6" width="4" height="3"/>
      <rect x="6" y="6" width="4" height="3"/>
      <rect x="10" y="6" width="4" height="3"/>
      <rect x="14" y="6" width="4" height="3"/>
      <rect x="18" y="6" width="4" height="3"/>
      <rect x="18" y="9" width="4" height="3"/>
      <rect x="18" y="12" width="4" height="3"/>
      <rect x="18" y="15" width="4" height="3"/>
      <rect x="18" y="18" width="4" height="3"/>
    </g>

    <!-- 2: top+right, middle horizontal, bottom+left -->
    <g transform="translate(160,0)" fill="#e0e0ff">
      <rect x="0" y="0" width="4" height="3"/>
      <rect x="4" y="0" width="4" height="3"/>
      <rect x="8" y="0" width="4" height="3"/>
      <rect x="12" y="0" width="4" height="3"/>
      <rect x="16" y="0" width="4" height="3"/>
      <rect x="0" y="3" width="4" height="3"/>
      <rect x="8" y="3" width="4" height="3"/>
      <rect x="12" y="3" width="4" height="3"/>
      <rect x="16" y="3" width="4" height="3"/>
      <rect x="0" y="6" width="4" height="3"/>
      <rect x="4" y="6" width="4" height="3"/>
      <rect x="8" y="6" width="4" height="3"/>
      <rect x="12" y="6" width="4" height="3"/>
      <rect x="16" y="6" width="4" height="3"/>
      <rect x="0" y="9" width="4" height="3"/>
      <rect x="4" y="9" width="4" height="3"/>
      <rect x="8" y="9" width="4" height="3"/>
      <rect x="12" y="9" width="4" height="3"/>
      <rect x="0" y="12" width="4" height="3"/>
      <rect x="4" y="12" width="4" height="3"/>
      <rect x="8" y="12" width="4" height="3"/>
      <rect x="12" y="12" width="4" height="3"/>
      <rect x="16" y="12" width="4" height="3"/>
      <rect x="0" y="15" width="4" height="3"/>
      <rect x="4" y="15" width="4" height="3"/>
      <rect x="0" y="18" width="4" height="3"/>
      <rect x="4" y="18" width="4" height="3"/>
      <rect x="8" y="18" width="4" height="3"/>
      <rect x="12" y="18" width="4" height="3"/>
      <rect x="16" y="18" width="4" height="3"/>
    </g>

    <!-- 7: top row + right column diagonal -->
    <g transform="translate(236,0)" fill="#e0e0ff">
      <rect x="0" y="0" width="4" height="3"/>
      <rect x="4" y="0" width="4" height="3"/>
      <rect x="8" y="0" width="4" height="3"/>
      <rect x="12" y="0" width="4" height="3"/>
      <rect x="16" y="0" width="4" height="3"/>
      <rect x="16" y="3" width="4" height="3"/>
      <rect x="16" y="6" width="4" height="3"/>
      <rect x="16" y="9" width="4" height="3"/>
      <rect x="16" y="12" width="4" height="3"/>
      <rect x="12" y="15" width="4" height="3"/>
      <rect x="8" y="15" width="4" height="3"/>
      <rect x="12" y="18" width="4" height="3"/>
      <rect x="8" y="18" width="4" height="3"/>
      <rect x="4" y="18" width="4" height="3"/>
    </g>

    <!-- Row 1: cell(1,3)='8'  cell(1,8)='5' -->
    <!-- 8 at x=132, y=105 -->
    <!-- 5 at x=280, y=105 -->
    <!-- 8: left+right columns, middle horizontal -->
    <g transform="translate(132,36)" fill="#e0e0ff">
      <rect x="0" y="0" width="4" height="3"/>
      <rect x="4" y="0" width="4" height="3"/>
      <rect x="8" y="0" width="4" height="3"/>
      <rect x="12" y="0" width="4" height="3"/>
      <rect x="16" y="0" width="4" height="3"/>
      <rect x="0" y="3" width="4" height="3"/>
      <rect x="16" y="3" width="4" height="3"/>
      <rect x="0" y="6" width="4" height="3"/>
      <rect x="4" y="6" width="4" height="3"/>
      <rect x="8" y="6" width="4" height="3"/>
      <rect x="12" y="6" width="4" height="3"/>
      <rect x="16" y="6" width="4" height="3"/>
      <rect x="0" y="9" width="4" height="3"/>
      <rect x="16" y="9" width="4" height="3"/>
      <rect x="0" y="12" width="4" height="3"/>
      <rect x="4" y="12" width="4" height="3"/>
      <rect x="8" y="12" width="4" height="3"/>
      <rect x="12" y="12" width="4" height="3"/>
      <rect x="16" y="12" width="4" height="3"/>
      <rect x="0" y="15" width="4" height="3"/>
      <rect x="16" y="15" width="4" height="3"/>
      <rect x="0" y="18" width="4" height="3"/>
      <rect x="4" y="18" width="4" height="3"/>
      <rect x="8" y="18" width="4" height="3"/>
      <rect x="12" y="18" width="4" height="3"/>
      <rect x="16" y="18" width="4" height="3"/>
    </g>

    <!-- 5: top+left, upper-right empty, middle horizontal, lower-left, bottom -->
    <g transform="translate(280,36)" fill="#e0e0ff">
      <rect x="0" y="0" width="4" height="3"/>
      <rect x="4" y="0" width="4" height="3"/>
      <rect x="8" y="0" width="4" height="3"/>
      <rect x="12" y="0" width="4" height="3"/>
      <rect x="16" y="0" width="4" height="3"/>
      <rect x="0" y="3" width="4" height="3"/>
      <rect x="0" y="6" width="4" height="3"/>
      <rect x="4" y="6" width="4" height="3"/>
      <rect x="8" y="6" width="4" height="3"/>
      <rect x="12" y="6" width="4" height="3"/>
      <rect x="0" y="9" width="4" height="3"/>
      <rect x="4" y="9" width="4" height="3"/>
      <rect x="8" y="9" width="4" height="3"/>
      <rect x="12" y="9" width="4" height="3"/>
      <rect x="0" y="12" width="4" height="3"/>
      <rect x="4" y="12" width="4" height="3"/>
      <rect x="8" y="12" width="4" height="3"/>
      <rect x="12" y="12" width="4" height="3"/>
      <rect x="0" y="15" width="4" height="3"/>
      <rect x="4" y="15" width="4" height="3"/>
      <rect x="8" y="15" width="4" height="3"/>
      <rect x="12" y="15" width="4" height="3"/>
      <rect x="0" y="18" width="4" height="3"/>
      <rect x="4" y="18" width="4" height="3"/>
      <rect x="8" y="18" width="4" height="3"/>
      <rect x="12" y="18" width="4" height="3"/>
      <rect x="16" y="18" width="4" height="3"/>
    </g>

    <!-- Row 2: cell(2,1)='3'  cell(2,5)='4' -->
    <!-- 3 at x=72, y=141 -->
    <!-- 4 at x=200, y=141 -->
    <!-- 3: left column, right column, middle horizontal -->
    <g transform="translate(72,72)" fill="#e0e0ff">
      <rect x="0" y="0" width="4" height="3"/>
      <rect x="4" y="0" width="4" height="3"/>
      <rect x="8" y="0" width="4" height="3"/>
      <rect x="12" y="0" width="4" height="3"/>
      <rect x="16" y="0" width="4" height="3"/>
      <rect x="0" y="3" width="4" height="3"/>
      <rect x="16" y="3" width="4" height="3"/>
      <rect x="0" y="6" width="4" height="3"/>
      <rect x="4" y="6" width="4" height="3"/>
      <rect x="8" y="6" width="4" height="3"/>
      <rect x="12" y="6" width="4" height="3"/>
      <rect x="16" y="6" width="4" height="3"/>
      <rect x="0" y="9" width="4" height="3"/>
      <rect x="16" y="9" width="4" height="3"/>
      <rect x="0" y="12" width="4" height="3"/>
      <rect x="4" y="12" width="4" height="3"/>
      <rect x="8" y="12" width="4" height="3"/>
      <rect x="12" y="12" width="4" height="3"/>
      <rect x="16" y="12" width="4" height="3"/>
      <rect x="0" y="15" width="4" height="3"/>
      <rect x="16" y="15" width="4" height="3"/>
      <rect x="0" y="18" width="4" height="3"/>
      <rect x="4" y="18" width="4" height="3"/>
      <rect x="8" y="18" width="4" height="3"/>
      <rect x="12" y="18" width="4" height="3"/>
      <rect x="16" y="18" width="4" height="3"/>
    </g>

    <!-- 4: right column top, middle horizontal, left column bottom -->
    <g transform="translate(200,72)" fill="#e0e0ff">
      <rect x="16" y="0" width="4" height="3"/>
      <rect x="16" y="3" width="4" height="3"/>
      <rect x="0" y="6" width="4" height="3"/>
      <rect x="4" y="6" width="4" height="3"/>
      <rect x="8" y="6" width="4" height="3"/>
      <rect x="12" y="6" width="4" height="3"/>
      <rect x="16" y="6" width="4" height="3"/>
      <rect x="0" y="9" width="4" height="3"/>
      <rect x="4" y="9" width="4" height="3"/>
      <rect x="8" y="9" width="4" height="3"/>
      <rect x="12" y="9" width="4" height="3"/>
      <rect x="16" y="9" width="4" height="3"/>
      <rect x="0" y="12" width="4" height="3"/>
      <rect x="16" y="12" width="4" height="3"/>
      <rect x="0" y="15" width="4" height="3"/>
      <rect x="16" y="15" width="4" height="3"/>
    </g>

    <!-- Row 3: cell(3,2)='8'  cell(3,7)='2' -->
    <!-- 8 at x=108, y=177 -->
    <!-- 2 at x=260, y=177 -->
    <!-- 8 at offset x=20, y=0 from group -->
    <g transform="translate(108,108)" fill="#e0e0ff">
      <rect x="0" y="0" width="4" height="3"/>
      <rect x="4" y="0" width="4" height="3"/>
      <rect x="8" y="0" width="4" height="3"/>
      <rect x="12" y="0" width="4" height="3"/>
      <rect x="16" y="0" width="4" height="3"/>
      <rect x="0" y="3" width="4" height="3"/>
      <rect x="16" y="3" width="4" height="3"/>
      <rect x="0" y="6" width="4" height="3"/>
      <rect x="4" y="6" width="4" height="3"/>
      <rect x="8" y="6" width="4" height="3"/>
      <rect x="12" y="6" width="4" height="3"/>
      <rect x="16" y="6" width="4" height="3"/>
      <rect x="0" y="9" width="4" height="3"/>
      <rect x="16" y="9" width="4" height="3"/>
      <rect x="0" y="12" width="4" height="3"/>
      <rect x="4" y="12" width="4" height="3"/>
      <rect x="8" y="12" width="4" height="3"/>
      <rect x="12" y="12" width="4" height="3"/>
      <rect x="16" y="12" width="4" height="3"/>
      <rect x="0" y="15" width="4" height="3"/>
      <rect x="16" y="15" width="4" height="3"/>
      <rect x="0" y="18" width="4" height="3"/>
      <rect x="4" y="18" width="4" height="3"/>
      <rect x="8" y="18" width="4" height="3"/>
      <rect x="12" y="18" width="4" height="3"/>
      <rect x="16" y="18" width="4" height="3"/>
    </g>

    <!-- 2 at offset x=24, y=0 -->
    <g transform="translate(260,108)" fill="#e0e0ff">
      <rect x="0" y="0" width="4" height="3"/>
      <rect x="4" y="0" width="4" height="3"/>
      <rect x="8" y="0" width="4" height="3"/>
      <rect x="12" y="0" width="4" height="3"/>
      <rect x="16" y="0" width="4" height="3"/>
      <rect x="0" y="3" width="4" height="3"/>
      <rect x="8" y="3" width="4" height="3"/>
      <rect x="12" y="3" width="4" height="3"/>
      <rect x="16" y="3" width="4" height="3"/>
      <rect x="0" y="6" width="4" height="3"/>
      <rect x="4" y="6" width="4" height="3"/>
      <rect x="8" y="6" width="4" height="3"/>
      <rect x="12" y="6" width="4" height="3"/>
      <rect x="16" y="6" width="4" height="3"/>
      <rect x="0" y="9" width="4" height="3"/>
      <rect x="4" y="9" width="4" height="3"/>
      <rect x="8" y="9" width="4" height="3"/>
      <rect x="12" y="9" width="4" height="3"/>
      <rect x="0" y="12" width="4" height="3"/>
      <rect x="4" y="12" width="4" height="3"/>
      <rect x="8" y="12" width="4" height="3"/>
      <rect x="12" y="12" width="4" height="3"/>
      <rect x="16" y="12" width="4" height="3"/>
      <rect x="0" y="15" width="4" height="3"/>
      <rect x="4" y="15" width="4" height="3"/>
      <rect x="0" y="18" width="4" height="3"/>
      <rect x="4" y="18" width="4" height="3"/>
      <rect x="8" y="18" width="4" height="3"/>
      <rect x="12" y="18" width="4" height="3"/>
      <rect x="16" y="18" width="4" height="3"/>
    </g>

    <!-- Row 4: cell(4,4)='6' (center cell - highlighted) -->
    <!-- 6 at x=164, y=213 -->
    <!-- 6: left+bottom circle + right top -->
    <!-- HIGHLIGHT: yellow background cell -->
    <rect x="161" y="196" width="42" height="37" fill="#ffff00" opacity="0.15"/>
    <g transform="translate(164,144)" fill="#e0e0ff">
      <rect x="0" y="0" width="4" height="3"/>
      <rect x="4" y="0" width="4" height="3"/>
      <rect x="8" y="0" width="4" height="3"/>
      <rect x="12" y="0" width="4" height="3"/>
      <rect x="16" y="0" width="4" height="3"/>
      <rect x="16" y="3" width="4" height="3"/>
      <rect x="16" y="6" width="4" height="3"/>
      <rect x="0" y="9" width="4" height="3"/>
      <rect x="4" y="9" width="4" height="3"/>
      <rect x="8" y="9" width="4" height="3"/>
      <rect x="12" y="9" width="4" height="3"/>
      <rect x="16" y="9" width="4" height="3"/>
      <rect x="0" y="12" width="4" height="3"/>
      <rect x="4" y="12" width="4" height="3"/>
      <rect x="8" y="12" width="4" height="3"/>
      <rect x="12" y="12" width="4" height="3"/>
      <rect x="16" y="12" width="4" height="3"/>
      <rect x="0" y="15" width="4" height="3"/>
      <rect x="4" y="15" width="4" height="3"/>
      <rect x="8" y="15" width="4" height="3"/>
      <rect x="12" y="15" width="4" height="3"/>
      <rect x="16" y="15" width="4" height="3"/>
      <rect x="0" y="18" width="4" height="3"/>
      <rect x="4" y="18" width="4" height="3"/>
      <rect x="8" y="18" width="4" height="3"/>
      <rect x="12" y="18" width="4" height="3"/>
      <rect x="16" y="18" width="4" height="3"/>
    </g>

    <!-- Row 5: cell(5,0)='9'  cell(5,6)='3' -->
    <!-- 9 at x=2, y=249 -->
    <!-- 3 at x=236, y=249 -->
    <!-- 9: right column bottom + top circle -->
    <g transform="translate(2,180)" fill="#e0e0ff">
      <rect x="0" y="0" width="4" height="3"/>
      <rect x="4" y="0" width="4" height="3"/>
      <rect x="8" y="0" width="4" height="3"/>
      <rect x="12" y="0" width="4" height="3"/>
      <rect x="16" y="0" width="4" height="3"/>
      <rect x="16" y="3" width="4" height="3"/>
      <rect x="0" y="6" width="4" height="3"/>
      <rect x="4" y="6" width="4" height="3"/>
      <rect x="8" y="6" width="4" height="3"/>
      <rect x="12" y="6" width="4" height="3"/>
      <rect x="16" y="6" width="4" height="3"/>
      <rect x="0" y="9" width="4" height="3"/>
      <rect x="4" y="9" width="4" height="3"/>
      <rect x="8" y="9" width="4" height="3"/>
      <rect x="12" y="9" width="4" height="3"/>
      <rect x="16" y="9" width="4" height="3"/>
      <rect x="16" y="12" width="4" height="3"/>
      <rect x="16" y="15" width="4" height="3"/>
      <rect x="16" y="18" width="4" height="3"/>
    </g>

    <!-- 3 at offset x=20, y=0 -->
    <g transform="translate(236,180)" fill="#e0e0ff">
      <rect x="0" y="0" width="4" height="3"/>
      <rect x="4" y="0" width="4" height="3"/>
      <rect x="8" y="0" width="4" height="3"/>
      <rect x="12" y="0" width="4" height="3"/>
      <rect x="16" y="0" width="4" height="3"/>
      <rect x="0" y="3" width="4" height="3"/>
      <rect x="16" y="3" width="4" height="3"/>
      <rect x="0" y="6" width="4" height="3"/>
      <rect x="4" y="6" width="4" height="3"/>
      <rect x="8" y="6" width="4" height="3"/>
      <rect x="12" y="6" width="4" height="3"/>
      <rect x="16" y="6" width="4" height="3"/>
      <rect x="0" y="9" width="4" height="3"/>
      <rect x="16" y="9" width="4" height="3"/>
      <rect x="0" y="12" width="4" height="3"/>
      <rect x="4" y="12" width="4" height="3"/>
      <rect x="8" y="12" width="4" height="3"/>
      <rect x="12" y="12" width="4" height="3"/>
      <rect x="16" y="12" width="4" height="3"/>
      <rect x="0" y="15" width="4" height="3"/>
      <rect x="16" y="15" width="4" height="3"/>
      <rect x="0" y="18" width="4" height="3"/>
      <rect x="4" y="18" width="4" height="3"/>
      <rect x="8" y="18" width="4" height="3"/>
      <rect x="12" y="18" width="4" height="3"/>
      <rect x="16" y="18" width="4" height="3"/>
    </g>

    <!-- Row 6: cell(6,3)='7'  cell(6,8)='9' -->
    <!-- 7 at x=132, y=285 -->
    <!-- 9 at x=284, y=285 -->
    <!-- 7 at offset x=20, y=0 -->
    <g transform="translate(132,216)" fill="#e0e0ff">
      <rect x="0" y="0" width="4" height="3"/>
      <rect x="4" y="0" width="4" height="3"/>
      <rect x="8" y="0" width="4" height="3"/>
      <rect x="12" y="0" width="4" height="3"/>
      <rect x="16" y="0" width="4" height="3"/>
      <rect x="16" y="3" width="4" height="3"/>
      <rect x="16" y="6" width="4" height="3"/>
      <rect x="16" y="9" width="4" height="3"/>
      <rect x="16" y="12" width="4" height="3"/>
      <rect x="12" y="15" width="4" height="3"/>
      <rect x="8" y="15" width="4" height="3"/>
      <rect x="12" y="18" width="4" height="3"/>
      <rect x="8" y="18" width="4" height="3"/>
      <rect x="4" y="18" width="4" height="3"/>
    </g>

    <!-- 9 at offset x=24, y=0 -->
    <g transform="translate(284,216)" fill="#e0e0ff">
      <rect x="0" y="0" width="4" height="3"/>
      <rect x="4" y="0" width="4" height="3"/>
      <rect x="8" y="0" width="4" height="3"/>
      <rect x="12" y="0" width="4" height="3"/>
      <rect x="16" y="0" width="4" height="3"/>
      <rect x="16" y="3" width="4" height="3"/>
      <rect x="0" y="6" width="4" height="3"/>
      <rect x="4" y="6" width="4" height="3"/>
      <rect x="8" y="6" width="4" height="3"/>
      <rect x="12" y="6" width="4" height="3"/>
      <rect x="16" y="6" width="4" height="3"/>
      <rect x="0" y="9" width="4" height="3"/>
      <rect x="4" y="9" width="4" height="3"/>
      <rect x="8" y="9" width="4" height="3"/>
      <rect x="12" y="9" width="4" height="3"/>
      <rect x="16" y="9" width="4" height="3"/>
      <rect x="16" y="12" width="4" height="3"/>
      <rect x="16" y="15" width="4" height="3"/>
      <rect x="16" y="18" width="4" height="3"/>
    </g>

    <!-- Row 7: cell(7,1)='6'  cell(7,5)='5' -->
    <!-- 6 at x=72, y=321 -->
    <!-- 5 at x=200, y=321 -->
    <!-- 6 at offset x=18, y=0 -->
    <g transform="translate(72,252)" fill="#e0e0ff">
      <rect x="0" y="0" width="4" height="3"/>
      <rect x="4" y="0" width="4" height="3"/>
      <rect x="8" y="0" width="4" height="3"/>
      <rect x="12" y="0" width="4" height="3"/>
      <rect x="16" y="0" width="4" height="3"/>
      <rect x="16" y="3" width="4" height="3"/>
      <rect x="16" y="6" width="4" height="3"/>
      <rect x="0" y="9" width="4" height="3"/>
      <rect x="4" y="9" width="4" height="3"/>
      <rect x="8" y="9" width="4" height="3"/>
      <rect x="12" y="9" width="4" height="3"/>
      <rect x="16" y="9" width="4" height="3"/>
      <rect x="0" y="12" width="4" height="3"/>
      <rect x="4" y="12" width="4" height="3"/>
      <rect x="8" y="12" width="4" height="3"/>
      <rect x="12" y="12" width="4" height="3"/>
      <rect x="16" y="12" width="4" height="3"/>
      <rect x="0" y="15" width="4" height="3"/>
      <rect x="4" y="15" width="4" height="3"/>
      <rect x="8" y="15" width="4" height="3"/>
      <rect x="12" y="15" width="4" height="3"/>
      <rect x="16" y="15" width="4" height="3"/>
      <rect x="0" y="18" width="4" height="3"/>
      <rect x="4" y="18" width="4" height="3"/>
      <rect x="8" y="18" width="4" height="3"/>
      <rect x="12" y="18" width="4" height="3"/>
      <rect x="16" y="18" width="4" height="3"/>
    </g>

    <!-- 5 at offset x=22, y=0 -->
    <g transform="translate(200,252)" fill="#e0e0ff">
      <rect x="0" y="0" width="4" height="3"/>
      <rect x="4" y="0" width="4" height="3"/>
      <rect x="8" y="0" width="4" height="3"/>
      <rect x="12" y="0" width="4" height="3"/>
      <rect x="16" y="0" width="4" height="3"/>
      <rect x="0" y="3" width="4" height="3"/>
      <rect x="8" y="3" width="4" height="3"/>
      <rect x="12" y="3" width="4" height="3"/>
      <rect x="16" y="3" width="4" height="3"/>
      <rect x="0" y="6" width="4" height="3"/>
      <rect x="4" y="6" width="4" height="3"/>
      <rect x="8" y="6" width="4" height="3"/>
      <rect x="12" y="6" width="4" height="3"/>
      <rect x="0" y="9" width="4" height="3"/>
      <rect x="4" y="9" width="4" height="3"/>
      <rect x="8" y="9" width="4" height="3"/>
      <rect x="12" y="9" width="4" height="3"/>
      <rect x="0" y="12" width="4" height="3"/>
      <rect x="4" y="12" width="4" height="3"/>
      <rect x="8" y="12" width="4" height="3"/>
      <rect x="12" y="12" width="4" height="3"/>
      <rect x="0" y="15" width="4" height="3"/>
      <rect x="4" y="15" width="4" height="3"/>
      <rect x="8" y="15" width="4" height="3"/>
      <rect x="12" y="15" width="4" height="3"/>
      <rect x="16" y="15" width="4" height="3"/>
    </g>

    <!-- Row 8: cell(8,2)='1'  cell(8,4)='9'  cell(8,7)='4' -->
    <!-- 1 at x=106, y=357 -->
    <!-- 9 at x=162, y=357 -->
    <!-- 4 at x=276, y=357 -->
    <!-- 1 at offset x=20, y=0 -->
    <g transform="translate(106,288)" fill="#e0e0ff">
      <rect x="2" y="0" width="4" height="3"/>
      <rect x="6" y="0" width="4" height="3"/>
      <rect x="10" y="0" width="4" height="3"/>
      <rect x="14" y="3" width="4" height="3"/>
      <rect x="18" y="3" width="4" height="3"/>
      <rect x="2" y="6" width="4" height="3"/>
      <rect x="6" y="6" width="4" height="3"/>
      <rect x="10" y="6" width="4" height="3"/>
      <rect x="14" y="6" width="4" height="3"/>
      <rect x="18" y="6" width="4" height="3"/>
      <rect x="18" y="9" width="4" height="3"/>
      <rect x="18" y="12" width="4" height="3"/>
      <rect x="18" y="15" width="4" height="3"/>
      <rect x="18" y="18" width="4" height="3"/>
    </g>

    <!-- 9 at offset x=18, y=0 -->
    <g transform="translate(162,288)" fill="#e0e0ff">
      <rect x="0" y="0" width="4" height="3"/>
      <rect x="4" y="0" width="4" height="3"/>
      <rect x="8" y="0" width="4" height="3"/>
      <rect x="12" y="0" width="4" height="3"/>
      <rect x="16" y="0" width="4" height="3"/>
      <rect x="16" y="3" width="4" height="3"/>
      <rect x="0" y="6" width="4" height="3"/>
      <rect x="4" y="6" width="4" height="3"/>
      <rect x="8" y="6" width="4" height="3"/>
      <rect x="12" y="6" width="4" height="3"/>
      <rect x="16" y="6" width="4" height="3"/>
      <rect x="0" y="9" width="4" height="3"/>
      <rect x="4" y="9" width="4" height="3"/>
      <rect x="8" y="9" width="4" height="3"/>
      <rect x="12" y="9" width="4" height="3"/>
      <rect x="16" y="9" width="4" height="3"/>
      <rect x="16" y="12" width="4" height="3"/>
      <rect x="16" y="15" width="4" height="3"/>
      <rect x="16" y="18" width="4" height="3"/>
    </g>

    <!-- 4 at offset x=20, y=0 -->
    <g transform="translate(276,288)" fill="#e0e0ff">
      <rect x="16" y="0" width="4" height="3"/>
      <rect x="16" y="3" width="4" height="3"/>
      <rect x="0" y="6" width="4" height="3"/>
      <rect x="4" y="6" width="4" height="3"/>
      <rect x="8" y="6" width="4" height="3"/>
      <rect x="12" y="6" width="4" height="3"/>
      <rect x="16" y="6" width="4" height="3"/>
      <rect x="0" y="9" width="4" height="3"/>
      <rect x="4" y="9" width="4" height="3"/>
      <rect x="8" y="9" width="4" height="3"/>
      <rect x="12" y="9" width="4" height="3"/>
      <rect x="16" y="9" width="4" height="3"/>
      <rect x="0" y="12" width="4" height="3"/>
      <rect x="16" y="12" width="4" height="3"/>
      <rect x="0" y="15" width="4" height="3"/>
      <rect x="16" y="15" width="4" height="3"/>
    </g>

    <!-- === GREEN USER-INPUT NUMBER (4 at cell 4,7 - row 4, col 7) === -->
    <!-- This is a user-entered number in green, slightly offset to show input -->
    <rect x="274" y="228" width="44" height="39" fill="#00ff88" opacity="0.12"/>
    <g transform="translate(276,231)" fill="#00ff88">
      <rect x="0" y="0" width="4" height="3"/>
      <rect x="4" y="0" width="4" height="3"/>
      <rect x="8" y="0" width="4" height="3"/>
      <rect x="12" y="0" width="4" height="3"/>
      <rect x="16" y="0" width="4" height="3"/>
      <rect x="0" y="3" width="4" height="3"/>
      <rect x="8" y="3" width="4" height="3"/>
      <rect x="12" y="3" width="4" height="3"/>
      <rect x="16" y="3" width="4" height="3"/>
      <rect x="0" y="6" width="4" height="3"/>
      <rect x="4" y="6" width="4" height="3"/>
      <rect x="8" y="6" width="4" height="3"/>
      <rect x="12" y="6" width="4" height="3"/>
      <rect x="0" y="9" width="4" height="3"/>
      <rect x="4" y="9" width="4" height="3"/>
      <rect x="8" y="9" width="4" height="3"/>
      <rect x="12" y="9" width="4" height="3"/>
      <rect x="0" y="12" width="4" height="3"/>
      <rect x="4" y="12" width="4" height="3"/>
      <rect x="8" y="12" width="4" height="3"/>
      <rect x="12" y="12" width="4" height="3"/>
      <rect x="0" y="15" width="4" height="3"/>
      <rect x="4" y="15" width="4" height="3"/>
      <rect x="8" y="15" width="4" height="3"/>
      <rect x="12" y="15" width="4" height="3"/>
      <rect x="16" y="15" width="4" height="3"/>
    </g>

    <!-- === YELLOW HIGHLIGHT on center cell (already added above) === -->
    <!-- Small pixel corner decorations on the grid frame -->
    <rect x="1" y="1" width="6" height="2" fill="#4a4a8a"/>
    <rect x="1" y="1" width="2" height="6" fill="#4a4a8a"/>
    <rect x="309" y="1" width="6" height="2" fill="#4a4a8a"/>
    <rect x="309" y="1" width="2" height="6" fill="#4a4a8a"/>
    <rect x="1" y="307" width="6" height="2" fill="#4a4a8a"/>
    <rect x="1" y="307" width="2" height="6" fill="#4a4a8a"/>
    <rect x="309" y="307" width="6" height="2" fill="#4a4a8a"/>
    <rect x="309" y="307" width="2" height="6" fill="#4a4a8a"/>
  </g>

  <!-- === TITLE BAR (bottom-left): 「數獨」 in a pixel-style box === -->
  <g transform="translate(16, 300)">
    <rect width="195" height="48" rx="4" fill="#1e2749"/>
    <rect width="195" height="48" rx="2" fill="none" stroke="#4a4a8a" stroke-width="2"/>
    <!-- Inner glow line -->
    <rect x="2" y="2" width="191" height="44" rx="2" fill="none" stroke="#2a4a7a" stroke-width="1"/>
    <text x="97" y="30" text-anchor="middle" font-family="'Press Start 2P', monospace" font-size="20" fill="#e0e0ff">數獨</text>
  </g>

  <!-- === LOGIC BADGE (top-right corner) === -->
  <g transform="translate(490, 14)">
    <!-- Badge background -->
    <rect width="134" height="36" rx="4" fill="#1e2749"/>
    <rect width="134" height="36" rx="2" fill="none" stroke="#4a4a8a" stroke-width="2"/>
    <!-- Inner glow line -->
    <rect x="2" y="2" width="130" height="32" rx="2" fill="none" stroke="#2a4a7a" stroke-width="1"/>

    <!-- LOGIC text as pixel art - L -->
    <g transform="translate(18, 8)" fill="#00ff88">
      <rect x="0" y="0" width="4" height="3"/>
      <rect x="0" y="3" width="4" height="3"/>
      <rect x="0" y="6" width="4" height="3"/>
      <rect x="0" y="9" width="4" height="3"/>
      <rect x="0" y="12" width="4" height="3"/>
      <rect x="0" y="15" width="4" height="3"/>
      <rect x="0" y="18" width="8" height="3"/>
    </g>
    <!-- pixel spacing 9 -->
    <rect x="38" y="8" width="9" height="21" fill="transparent"/>

    <!-- O -->
    <g transform="translate(55, 8)" fill="#ff6b6b">
      <rect x="0" y="0" width="4" height="3"/>
      <rect x="4" y="0" width="4" height="3"/>
      <rect x="8" y="0" width="4" height="3"/>
      <rect x="12" y="0" width="4" height="3"/>
      <rect x="0" y="3" width="4" height="3"/>
      <rect x="12" y="3" width="4" height="3"/>
      <rect x="0" y="6" width="4" height="3"/>
      <rect x="12" y="6" width="4" height="3"/>
      <rect x="0" y="9" width="4" height="3"/>
      <rect x="12" y="9" width="4" height="3"/>
      <rect x="0" y="12" width="4" height="3"/>
      <rect x="12" y="12" width="4" height="3"/>
      <rect x="0" y="15" width="4" height="3"/>
      <rect x="4" y="15" width="4" height="3"/>
      <rect x="8" y="15" width="4" height="3"/>
      <rect x="0" y="18" width="4" height="3"/>
      <rect x="4" y="18" width="4" height="3"/>
      <rect x="8" y="18" width="4" height="3"/>
      <rect x="12" y="18" width="4" height="3"/>
    </g>
    <rect x="77" y="8" width="9" height="21" fill="transparent"/>

    <!-- G -->
    <g transform="translate(94, 8)" fill="#ffaa00">
      <rect x="0" y="0" width="4" height="3"/>
      <rect x="4" y="0" width="4" height="3"/>
      <rect x="8" y="0" width="4" height="3"/>
      <rect x="12" y="0" width="4" height="3"/>
      <rect x="0" y="3" width="4" height="3"/>
      <rect x="12" y="3" width="4" height="3"/>
      <rect x="0" y="6" width="4" height="3"/>
      <rect x="4" y="6" width="4" height="3"/>
      <rect x="8" y="6" width="4" height="3"/>
      <rect x="12" y="6" width="4" height="3"/>
      <rect x="0" y="9" width="4" height="3"/>
      <rect x="12" y="9" width="4" height="3"/>
      <rect x="0" y="12" width="4" height="3"/>
      <rect x="4" y="12" width="4" height="3"/>
      <rect x="8" y="12" width="4" height="3"/>
      <rect x="0" y="15" width="4" height="3"/>
      <rect x="4" y="15" width="4" height="3"/>
      <rect x="8" y="15" width="4" height="3"/>
      <rect x="12" y="15" width="4" height="3"/>
    </g>

    <!-- I (single column) -->
    <g transform="translate(115, 8)" fill="#e0e0ff">
      <rect x="4" y="0" width="8" height="3"/>
      <rect x="4" y="3" width="8" height="3"/>
      <rect x="4" y="6" width="8" height="3"/>
      <rect x="4" y="9" width="8" height="3"/>
      <rect x="4" y="12" width="8" height="3"/>
      <rect x="4" y="15" width="8" height="3"/>
      <rect x="4" y="18" width="8" height="3"/>
    </g>

    <!-- C -->
    <g transform="translate(126, 8)" fill="#6b9fff">
      <rect x="0" y="0" width="4" height="3"/>
      <rect x="4" y="0" width="4" height="3"/>
      <rect x="8" y="0" width="4" height="3"/>
      <rect x="12" y="0" width="4" height="3"/>
      <rect x="0" y="3" width="4" height="3"/>
      <rect x="0" y="6" width="4" height="3"/>
      <rect x="4" y="6" width="4" height="3"/>
      <rect x="8" y="6" width="4" height="3"/>
      <rect x="0" y="9" width="4" height="3"/>
      <rect x="0" y="12" width="4" height="3"/>
      <rect x="4" y="12" width="4" height="3"/>
      <rect x="8" y="12" width="4" height="3"/>
      <rect x="0" y="15" width="4" height="3"/>
      <rect x="4" y="15" width="4" height="3"/>
      <rect x="8" y="15" width="4" height="3"/>
      <rect x="0" y="18" width="4" height="3"/>
      <rect x="4" y="18" width="4" height="3"/>
      <rect x="8" y="18" width="4" height="3"/>
    </g>
  </g>

  <!-- === DECORATIVE PIXEL CORNERS === -->
  <!-- Top-left corner pixels -->
  <rect x="8" y="12" width="12" height="4" fill="#4a4a8a" opacity="0.6"/>
  <rect x="8" y="12" width="4" height="12" fill="#4a4a8a" opacity="0.6"/>
  <!-- Top-right corner pixels -->
  <rect x="620" y="12" width="12" height="4" fill="#4a4a8a" opacity="0.6"/>
  <rect x="620" y="12" width="4" height="12" fill="#4a4a8a" opacity="0.6"/>
  <!-- Bottom-left corner pixels -->
  <rect x="8" y="344" width="12" height="4" fill="#4a4a8a" opacity="0.6"/>
  <rect x="8" y="344" width="4" height="12" fill="#4a4a8a" opacity="0.6"/>
  <!-- Bottom-right corner pixels -->
  <rect x="620" y="344" width="12" height="4" fill="#4a4a8a" opacity="0.6"/>
  <rect x="620" y="344" width="4" height="12" fill="#4a4a8a" opacity="0.6"/>
</svg>