<svg xmlns="http://www.w3.org/2000/svg" viewBox="0 0 320 200">
  <defs>
    <linearGradient id="flappy-bg" x1="0" y1="0" x2="0" y2="1">
      <stop offset="0" stop-color="#7dd3fc"/>
      <stop offset="1" stop-color="#e0f2fe"/>
    </linearGradient>
  </defs>
  <rect width="320" height="200" fill="url(#flappy-bg)"/>
  <g fill="#ffffff" stroke="#1a1a1a" stroke-width="1.8">
    <ellipse cx="61" cy="43" rx="22" ry="12"/>
    <ellipse cx="80" cy="43" rx="18" ry="10"/>
    <ellipse cx="242" cy="58" rx="24" ry="13"/>
    <ellipse cx="264" cy="58" rx="19" ry="11"/>
  </g>
  <g stroke="#1a1a1a" stroke-width="2.2" stroke-linejoin="round">
    <rect x="20" y="105" width="56" height="95" rx="12" fill="#34d399"/>
    <rect x="11" y="91" width="74" height="22" rx="7" fill="#6ee7b7"/>
    <rect x="247" y="0" width="56" height="88" rx="12" fill="#34d399"/>
    <rect x="238" y="80" width="74" height="22" rx="7" fill="#6ee7b7"/>
    <ellipse cx="160" cy="106" rx="51" ry="39" fill="#fbbf24"/>
    <ellipse cx="126" cy="114" rx="27" ry="22" fill="#f9a8d4"/>
    <circle cx="176" cy="91" r="17" fill="#fffef2"/>
    <circle cx="182" cy="91" r="6" fill="#1a1a1a"/>
    <polygon points="205,105 247,119 205,134" fill="#fb923c"/>
    <path d="M143 128 Q160 143 181 126" fill="none" stroke-linecap="round"/>
    <ellipse cx="143" cy="104" rx="6" ry="4" fill="#f87171" stroke="none"/>
  </g>
  <path d="M0 178 C48 160 76 186 118 169 C174 146 218 175 320 151 L320 200 L0 200 Z" fill="#bae6fd" opacity="0.65"/>
</svg>
